inDegrees=no
num_controls=7
num_derivatives=13
num_iterations=108
num_multipliers=7
num_parameters=0
num_slacks=7
num_states=26
objective=0.516225
objective_accelerations=0.040493
objective_balance=0.002197
objective_effort=0.044437
objective_height=0.417520
objective_ligament=0.011578
solver_duration=1435.121495
status=Solve_Succeeded
success=true
DataType=double
version=3
OpenSimVersion=4.5
endheader
time	/jointset/ground_pelvis/pelvis_tilt/value	/jointset/ground_pelvis/pelvis_tx/value	/jointset/ground_pelvis/pelvis_ty/value	/jointset/hip_l/hip_flexion_l/value	/jointset/hip_l/hip_adduction_l/value	/jointset/hip_l/hip_rotation_l/value	/jointset/back/lumbar_extension/value	/jointset/patellofemoral_l/patellar_flexion_l/value	/jointset/knee_l/knee_flexion_l/value	/jointset/knee_l/knee_adduction_l/value	/jointset/knee_l/knee_rotation_l/value	/jointset/ankle_l/ankle_angle_l/value	/jointset/subtalar_l/subtalar_angle_l/value	/jointset/ground_pelvis/pelvis_tilt/speed	/jointset/ground_pelvis/pelvis_tx/speed	/jointset/ground_pelvis/pelvis_ty/speed	/jointset/hip_l/hip_flexion_l/speed	/jointset/hip_l/hip_adduction_l/speed	/jointset/hip_l/hip_rotation_l/speed	/jointset/back/lumbar_extension/speed	/jointset/patellofemoral_l/patellar_flexion_l/speed	/jointset/knee_l/knee_flexion_l/speed	/jointset/knee_l/knee_adduction_l/speed	/jointset/knee_l/knee_rotation_l/speed	/jointset/ankle_l/ankle_angle_l/speed	/jointset/subtalar_l/subtalar_angle_l/speed	/forceset/tau_hip_flexion_l	/forceset/tau_hip_adduction_l	/forceset/tau_hip_rotation_l	/forceset/tau_knee_flexion_l	/forceset/tau_ankle_angle_l	/forceset/tau_subtalar_angle_l	/forceset/tau_lumbar_extension	lambda_cid13_p0	lambda_cid13_p1	lambda_cid13_p2	lambda_cid13_p3	lambda_cid13_p4	lambda_cid13_p5	lambda_cid14_p0	/jointset/ground_pelvis/pelvis_tilt/accel	/jointset/ground_pelvis/pelvis_tx/accel	/jointset/ground_pelvis/pelvis_ty/accel	/jointset/hip_l/hip_flexion_l/accel	/jointset/hip_l/hip_adduction_l/accel	/jointset/hip_l/hip_rotation_l/accel	/jointset/back/lumbar_extension/accel	/jointset/patellofemoral_l/patellar_flexion_l/accel	/jointset/knee_l/knee_flexion_l/accel	/jointset/knee_l/knee_adduction_l/accel	/jointset/knee_l/knee_rotation_l/accel	/jointset/ankle_l/ankle_angle_l/accel	/jointset/subtalar_l/subtalar_angle_l/accel	gamma_cid13_p0	gamma_cid13_p1	gamma_cid13_p2	gamma_cid13_p3	gamma_cid13_p4	gamma_cid13_p5	gamma_cid14_p0
1	-0.1643390114106589	-0.09104198754632627	0.7207858991929	1.278717650815835	-0.327887513109005	0.004109407466122188	-0.9599164064522542	1.183215868772544	1.183215868772568	-0.078856429692613	-0.1745324334727366	0.1489857210920955	0.01411401059411162	0.1040155796217033	0.02455690817645063	0.0671223568755368	-0.2893332169552267	-0.0005084524672179776	-0.06340299060854986	-0.002976474406563626	-0.165500704504745	-0.1655007045047428	-0.000523297396192589	-4.815474597036672e-05	0.01118967510353326	0.004491307547291455	-0.4039585343376804	0.02222064093613732	-0.004796923416096803	-0.298041026793722	0.1048528625876849	0.03597546209463052	0.4390962464341267	-16.81598199913974	-12.35562546918456	1.14524730548531	4.932738208193253	-789.1464011095251	-64.31564347049594	-1.344263583488353	1.081797628520176	0.1922500514181485	1.297138907297904	-4.790724901898185	-0.0234310262403037	-1.445608276085947	0.2891424010518948	-4.195322902216883	-4.195322902216883	-0.1928824751448404	-0.007302732525350821	-0.7597662887129892	-0.2831279559894259	-8.716539849360387e-09	-1.108181682559307e-08	4.215856234681562e-08	1.142432412600266e-09	-2.009353908411144e-08	5.402921681995785e-08	-1.17257095035865e-08
1.01	-0.1632453213490075	-0.09078679057462062	0.7215217181482421	1.275585936118965	-0.3278931400743704	0.003402887944168176	-0.9599310177889848	1.181351537714978	1.181351537715	-0.07887007439840263	-0.1745326295855021	0.1490596955381882	0.01414552298933519	0.1147133121954236	0.0264863775453807	0.08002640591974393	-0.3369744648482939	-0.0006101911239625515	-0.07789315557283578	6.847042654135031e-05	-0.2073509212593036	-0.2073509212593028	-0.002205350780448526	6.963343766512551e-06	0.003594918505535087	0.001815032483169391	-0.4028970617459613	0.02235513048869566	-0.00483387075667768	-0.2978472232529363	0.1048379664589725	0.03604650868096576	0.4384780223631175	-16.77765202772899	-12.40116375430001	1.161612650591156	4.821394257329067	-788.565669240585	-64.38515196811633	-1.378577005260455	1.06239131544371	0.1938804203217356	1.284778423893179	-4.745538400452074	-0.002535296805315514	-1.449570430603619	0.3143100350765088	-4.177680150792837	-4.177680150793053	-0.1558307965515444	0.01163697486636375	-0.760875701371278	-0.2593017485997119	-1.417469251814588e-08	-1.825583418956015e-08	5.644602199047698e-08	6.612774406544335e-09	-2.612957571656167e-08	6.181436745606973e-08	-1.520921201060665e-08
1.02	-0.1620449279128944	-0.09051218190108755	0.7223861256982087	1.271978866209666	-0.3278995824285882	0.002551696807780448	-0.9599147517756323	1.179069142672123	1.179069142672149	-0.07890053244332718	-0.1745323309383594	0.1490574133470953	0.01415038774052224	0.1253562545149735	0.02843924854193237	0.09284007580037572	-0.3844042594390063	-0.0006715302372647802	-0.09233731349727151	0.003198995685112636	-0.2491135015625628	-0.2491135015625634	-0.003885965224128166	5.079723922499448e-05	-0.004061652333586933	-0.0008382212600002296	-0.401835589154261	0.02248962004126771	-0.004870818097291534	-0.2976534197121505	0.1048230703302683	0.03611755526732056	0.4378597982920893	-16.7497920555284	-12.4446138883879	1.177353933952552	4.745628579861175	-788.1270756558951	-64.44512291139259	-1.421153807071909	1.070839577686138	0.1969303769424607	1.279063074582838	-4.748434241427208	-0.01535111755183768	-1.436406868115915	0.3062584861451895	-4.177795611956991	-4.177795611956987	-0.1925946870295772	-0.009559571381040124	-0.772129136937767	-0.2785236917989438	-1.99129710140126e-08	-2.686550762369516e-08	6.93934514822471e-08	1.227937908723262e-08	-3.299402034555128e-08	6.906826000917372e-08	-1.870455495191173e-08
1.03	-0.1607384820121458	-0.09021768077856421	0.7233782715052505	1.267898312316048	-0.327906421517735	0.001556401396502898	-0.9598651208459126	1.176369554098315	1.176369554098315	-0.07894788616448493	-0.1745315973572998	0.1489786131150299	0.0141289835262353	0.1359149868669269	0.03048988061371726	0.1055798016040962	-0.4316986543644621	-0.0006898884418174091	-0.1067084173428348	0.006903369590865431	-0.2907912698032937	-0.2907912698032938	-0.005592890584610064	9.455960796541895e-05	-0.01167313559444975	-0.003426016442178448	-0.4025058690726901	0.02286632184718325	-0.004919891983579997	-0.2968541014106298	0.104563898899345	0.03635065138154157	0.4391960171070435	-16.84364622878697	-12.54825262147597	1.215394599195525	4.289659951462571	-788.777753354171	-64.52451248737219	-1.472315353018799	1.045697301764728	0.2134689438950762	1.270026717640094	-4.718765422275784	0.005878042261335405	-1.43547972229339	0.4289537419389714	-4.160821459574873	-4.160821459574803	-0.1609705095948797	0.01115929380572769	-0.751871718746062	-0.2464204097449228	-2.565410793668628e-08	-3.548983060956657e-08	8.232720719695709e-08	1.794798644839788e-08	-3.986691811736273e-08	7.631673156143071e-08	-2.220001871397482e-08
1.04	-0.1593269873403184	-0.08990180547100349	0.7244975344472042	1.263345049812327	-0.3279132529460965	0.0004177914308746151	-0.9597731607972788	1.173253577036212	1.173253577036195	-0.07901255494905006	-0.174530463122006	0.148824455290739	0.01408219876446296	0.1463660087314685	0.03271408554941024	0.1182635027827381	-0.4789459814567624	-0.0006699980796433258	-0.121000224369074	0.01166481946256266	-0.3323911992217741	-0.3323911992217736	-0.007348977906588391	0.0001309280888666794	-0.0191331707787349	-0.005914330757066081	-0.4031761489911599	0.02324302365310728	-0.004968965869890887	-0.2960547831091094	0.1043047274684327	0.03658374749577692	0.4405322359219587	-16.948184192249	-12.64984233059883	1.252904905135608	3.867697858741571	-789.5749384750013	-64.59500214089621	-1.532429577397201	1.049297480203791	0.231644949724079	1.2678581495671	-4.7390206747961	-0.007701404206514557	-1.420547504251119	0.5176736793339884	-4.162227847506868	-4.162227847506871	-0.2024270793288648	-0.01103834894891589	-0.7418395216222339	-0.2586275183408479	-2.742743499810302e-08	-4.396105740368641e-08	9.120716985309975e-08	1.644935326675964e-08	-4.181730559271661e-08	7.823845691188563e-08	-2.482900346018016e-08
1.05	-0.1578119785537248	-0.08956288802574143	0.7257431796559122	1.258320388142315	-0.3279196752852911	-0.0008632909914995288	-0.959628202359337	1.169722157748628	1.169722157748683	-0.07909501741970604	-0.1745290339158876	0.1485962434569667	0.01401097402848083	0.1565693092209238	0.03509149440287544	0.1308383845741585	-0.5258909584508242	-0.0006033496397659365	-0.1352019938039004	0.01751630531654784	-0.3738622314587483	-0.3738622314587452	-0.009142410139320375	0.0001528860504276032	-0.02650428551842672	-0.008315836026712519	-0.4028918410653817	0.02355336624929404	-0.005029131759159353	-0.2952395640358505	0.1042513510676289	0.03682064054320978	0.4410121523997427	-16.93757074226857	-12.7747546289665	1.295859806539395	3.452829401480986	-789.5387117613775	-64.70840879802678	-1.601941533467774	0.9958778627546442	0.2441054160988034	1.248221295296865	-4.657930763933121	0.01551119669796924	-1.417876739797504	0.6473016169329883	-4.134971373831305	-4.134971373830942	-0.1676508863838215	0.008531627207004507	-0.7340139001980164	-0.2286980864332784	-2.907676800135551e-08	-5.242749994181402e-08	9.996045147616219e-08	1.472674381815884e-08	-4.361386462130622e-08	7.999372144353426e-08	-2.743091073713996e-08
1.06	-0.1561969304563517	-0.08919953317935671	0.7271137573028081	1.252829137791906	-0.3279250984943666	-0.002285968123554856	-0.9594190459471501	1.165776942046266	1.165776942046401	-0.07919538413091312	-0.1745274413784634	0.1482944671857866	0.01391617702877082	0.1663738708879048	0.03760156577394592	0.1432499904202624	-0.5722637175337647	-0.0004701720553698242	-0.1493191663066927	0.02450441431062112	-0.4151504821772671	-0.4151504821772615	-0.0109298260175917	0.0001635943519200757	-0.03384605826033407	-0.01062878350263117	-0.4026075331396398	0.02386370884548807	-0.005089297648449616	-0.2944243449625916	0.1041979746668351	0.03705753359065513	0.4414920688774921	-16.93759506834628	-12.89776329828174	1.338464395117592	3.069821253668552	-789.6493948938489	-64.81464577957634	-1.681300187415574	0.9695497157089508	0.2581774532451406	1.235202960503788	-4.624577092571792	0.005604424697199552	-1.403628117844364	0.7449983073515971	-4.125671543815803	-4.125671543815804	-0.2012238084367387	-0.01328828096267263	-0.735971122065332	-0.2409159595953211	-3.147228199785449e-08	-6.037179227714265e-08	1.070051452438027e-07	1.511706511614519e-08	-4.66941833095535e-08	8.113921240264584e-08	-2.964152191092746e-08
1.07	-0.1544858290060171	-0.0888104022616122	0.7286075787951711	1.246877124256455	-0.3279288628644281	-0.003849252064846821	-0.959134336010104	1.161419843940249	1.161419843940202	-0.07931372495856874	-0.1745257919959691	0.1479193999204789	0.0137986785430691	0.1757767616116725	0.04024784235705401	0.1554811525042167	-0.6180293153807772	-0.0002694966794993742	-0.1633148111673748	0.03262999050912267	-0.4562300377496677	-0.4562300377496626	-0.01274137682707483	0.0001665641711892958	-0.04116417680497379	-0.0128543441902012	-0.4020180715862371	0.02420037930951861	-0.005157703974798574	-0.293417480853368	0.1041527846388894	0.03733721317995204	0.4417296164342233	-16.90899712360419	-13.04840436013242	1.390087399994163	2.640991764987656	-789.3891018976526	-64.95328738822562	-1.771029044022487	0.9152071864039619	0.2713395792397767	1.212089487035001	-4.536104172807416	0.02927464403751093	-1.394140311867982	0.8751998876481727	-4.093225975179177	-4.09322597517926	-0.1715948290616983	0.007157766183018936	-0.7292533170343446	-0.210892885520965	-3.390748647271766e-08	-6.828831066551389e-08	1.139589566787079e-07	1.561977634746067e-08	-4.984278708608044e-08	8.225226859726075e-08	-3.183131946220578e-08
1.08	-0.1526827889613073	-0.08839411121435756	0.7302227152393126	1.240470744134132	-0.3279302253707289	-0.005551813983077366	-0.9587625977887601	1.156653124596261	1.156653124596031	-0.07945027611668964	-0.1745240992847266	0.1474712472504509	0.01365942109805499	0.1847615897631712	0.04303359167597297	0.1675129807759273	-0.663137034909445	1.020069658697743e-05	-0.1771747616955718	0.04191007116957386	-0.4970747297711479	-0.4970747297711432	-0.01457189211086256	0.000172260102906203	-0.04846313920445708	-0.01498057536509861	-0.4014286100328025	0.02453704977356323	-0.005226110301174096	-0.2924106167441416	0.1041075946109434	0.03761689276926565	0.4419671639909815	-16.89107601504221	-13.19726094008205	1.441522996862102	2.242628290406062	-789.2769108490753	-65.0867023922851	-1.871666025834259	0.8859372012551394	0.286072000407321	1.195336198055053	-4.493001428902858	0.0214088247403449	-1.376489251347406	0.9758991997415222	-4.0786988336317	-4.07869883363169	-0.2050167032976651	-0.01274305847321516	-0.7321398930340371	-0.2210500570608369	-3.620931010577218e-08	-7.561631675212275e-08	1.167090769313733e-07	1.706308417049214e-08	-5.406560126913047e-08	8.120835046364669e-08	-3.310676789298238e-08
